<svg width="324" height="124" viewBox="0 0 324 124" fill="none" xmlns="http://www.w3.org/2000/svg">
<path d="M15.648 46.12L7.92 45.208C8.112 42.856 9.072 34.216 10.128 25.576C8.496 25.72 6.864 25.816 5.28 25.96L5.04 18.472C7.584 18.232 9.456 18.04 11.088 17.944C11.616 14.104 11.856 12.328 12 11.368L19.92 12.328C19.632 14.2 19.392 15.88 19.2 17.416C21.12 17.272 23.28 17.224 26.016 17.224V24.568C23.328 24.664 20.592 24.808 18.192 25C17.136 32.872 15.84 43.432 15.648 46.12ZM35.424 48.28C31.776 48.28 28.08 47.944 26.016 47.464L26.736 40.216C31.056 40.984 38.928 41.08 41.904 40.408L42.528 47.608C41.088 48.04 38.592 48.28 35.424 48.28ZM27.12 34.936L26.448 27.64C30.672 27.112 36.48 26.92 40.176 27.16V34.456C36.144 34.408 30.144 34.6 27.12 34.936ZM70.848 46.12L63.12 45.208C63.312 42.856 64.272 34.216 65.328 25.576C63.696 25.72 62.064 25.816 60.48 25.96L60.24 18.472C62.784 18.232 64.656 18.04 66.288 17.944C66.816 14.104 67.056 12.328 67.2 11.368L75.12 12.328C74.832 14.2 74.592 15.88 74.4 17.416C76.32 17.272 78.48 17.224 81.216 17.224V24.568C78.528 24.664 75.792 24.808 73.392 25C72.336 32.872 71.04 43.432 70.848 46.12ZM90.624 48.28C86.976 48.28 83.28 47.944 81.216 47.464L81.936 40.216C86.256 40.984 94.128 41.08 97.104 40.408L97.728 47.608C96.288 48.04 93.792 48.28 90.624 48.28ZM82.32 34.936L81.648 27.64C85.872 27.112 91.68 26.92 95.376 27.16V34.456C91.344 34.408 85.344 34.6 82.32 34.936ZM91.152 20.392C91.056 19.24 90.864 16.984 90.624 14.296L94.944 13.912C95.184 15.736 95.376 18.616 95.472 20.008L91.152 20.392ZM97.632 19.96C97.536 18.184 97.296 15.544 97.2 13.816L101.424 13.432C101.568 14.632 101.808 17.128 102 19.528L97.632 19.96ZM120.48 44.536C117.936 38.824 116.832 33.736 116.832 27.736C116.832 24.952 117.072 21.928 117.552 18.376L125.232 19.48C124.704 24.664 124.848 30.28 125.568 34.312C127.248 33.976 128.544 33.64 130.272 33.256L131.664 39.832C127.968 41.416 124.08 43 120.48 44.536ZM144.624 37C144.144 33.304 142.896 27.976 141.072 22.12L148.8 20.344C150.288 23.704 151.776 30.664 151.92 34.888L144.624 37ZM183.936 49.048C179.28 49.048 176.064 46.168 176.064 41.752C176.064 36.472 180.192 33.928 187.056 35.032C187.152 33.16 187.152 32.248 187.152 31.672C184.224 31.864 181.44 32.056 178.368 32.344L177.792 25.576C180.672 25.24 183.744 25 186.96 24.856C186.912 23.464 186.864 22.792 186.768 22.12C184.128 22.36 181.728 22.6 179.472 22.84L178.704 16.072C180.912 15.832 183.264 15.592 185.952 15.352C185.856 14.488 185.664 13.624 185.424 12.328L193.104 11.608C193.344 12.52 193.536 13.576 193.68 14.776C196.08 14.632 198.384 14.584 200.208 14.632L199.92 21.592C198.288 21.592 196.416 21.64 194.448 21.688C194.496 22.648 194.544 23.608 194.592 24.568C196.944 24.52 199.056 24.52 200.736 24.568L200.592 31.48C198.816 31.336 196.8 31.336 194.688 31.336C194.64 32.776 194.592 34.36 194.448 36.136C197.472 36.952 200.496 37.72 202.608 38.488L200.448 45.448C198.24 44.632 196.176 43.768 193.248 43.096C192.384 46.888 188.976 49.048 183.936 49.048ZM182.256 43.048C182.64 43.624 183.216 43.912 183.84 43.912C185.04 43.912 186.288 42.904 186.384 41.416C185.52 40.936 184.608 40.744 183.888 40.744C182.352 40.792 181.392 41.752 182.256 43.048ZM239.904 34.888C239.808 28.12 240 19.768 240.288 14.488L250.032 14.44C249.408 20.776 248.832 28.12 248.688 34.456L239.904 34.888ZM239.712 47.128C239.616 43.912 239.664 42.136 239.568 38.872L248.784 38.632C248.88 41.896 248.88 43.624 249.024 46.888L239.712 47.128ZM18.336 111.048C13.68 111.048 10.464 108.168 10.464 103.752C10.464 98.472 14.592 95.928 21.456 97.032C21.552 95.16 21.552 94.248 21.552 93.672C18.624 93.864 15.84 94.056 12.768 94.344L12.192 87.576C15.072 87.24 18.144 87 21.36 86.856C21.312 85.464 21.264 84.792 21.168 84.12C18.528 84.36 16.128 84.6 13.872 84.84L13.104 78.072C15.312 77.832 17.664 77.592 20.352 77.352C20.256 76.488 20.064 75.624 19.824 74.328L27.504 73.608C27.744 74.52 27.936 75.576 28.08 76.776C30.48 76.632 32.784 76.584 34.608 76.632L34.32 83.592C32.688 83.592 30.816 83.64 28.848 83.688C28.896 84.648 28.944 85.608 28.992 86.568C31.344 86.52 33.456 86.52 35.136 86.568L34.992 93.48C33.216 93.336 31.2 93.336 29.088 93.336C29.04 94.776 28.992 96.36 28.848 98.136C31.872 98.952 34.896 99.72 37.008 100.488L34.848 107.448C32.64 106.632 30.576 105.768 27.648 105.096C26.784 108.888 23.376 111.048 18.336 111.048ZM16.656 105.048C17.04 105.624 17.616 105.912 18.24 105.912C19.44 105.912 20.688 104.904 20.784 103.416C19.92 102.936 19.008 102.744 18.288 102.744C16.752 102.792 15.792 103.752 16.656 105.048ZM70.848 108.12L63.12 107.208C63.312 104.856 64.272 96.216 65.328 87.576C63.696 87.72 62.064 87.816 60.48 87.96L60.24 80.472C62.784 80.232 64.656 80.04 66.288 79.944C66.816 76.104 67.056 74.328 67.2 73.368L75.12 74.328C74.832 76.2 74.592 77.88 74.4 79.416C76.32 79.272 78.48 79.224 81.216 79.224V86.568C78.528 86.664 75.792 86.808 73.392 87C72.336 94.872 71.04 105.432 70.848 108.12ZM90.624 110.28C86.976 110.28 83.28 109.944 81.216 109.464L81.936 102.216C86.256 102.984 94.128 103.08 97.104 102.408L97.728 109.608C96.288 110.04 93.792 110.28 90.624 110.28ZM82.32 96.936L81.648 89.64C85.872 89.112 91.68 88.92 95.376 89.16V96.456C91.344 96.408 85.344 96.6 82.32 96.936ZM118.56 86.184L113.904 81.144C117.552 77.784 119.472 76.248 123.072 73.224L127.632 78.12C124.608 80.568 122.736 82.248 118.56 86.184ZM135.408 83.928L134.736 76.152C139.2 75.672 148.08 75.528 152.736 75.432L153.024 83.16C147.552 83.112 138.24 83.496 135.408 83.928ZM121.536 111.528C121.344 108.648 121.2 105 121.008 98.136L117.984 101.016L112.944 95.784C118.176 90.936 122.496 86.952 125.904 83.976L131.184 89.064C128.592 91.368 126.384 93.288 123.984 95.448L128.256 95.304C128.448 102.792 128.64 108.072 128.832 111.192L121.536 111.528ZM141.504 111.336C141.6 101.88 141.6 100.152 141.6 96.264C138.432 96.36 135.696 96.504 134.256 96.648L133.776 88.872C137.328 88.584 147.936 88.344 154.656 88.44L154.752 96.168H149.088C149.088 102.072 149.04 107.112 148.944 111.336H141.504ZM198.624 91.992L191.712 90.408C192.048 89.208 192.432 87.864 192.672 86.52C188.448 86.04 183.504 85.32 178.464 84.456L179.328 76.536C188.592 78.024 194.304 78.552 201.36 79.368C200.496 83.544 199.44 88.824 198.624 91.992ZM192.288 109.128C186.48 109.128 180.768 108.168 176.256 106.392L178.032 98.232C184.176 100.968 192 101.592 200.928 100.056L201.888 108.216C199.008 108.84 195.84 109.128 192.288 109.128ZM242.375 111.336L238.199 104.76C243.911 100.632 246.551 97.944 246.551 96.264C246.551 92.376 242.663 91.512 233.735 93.432L231.767 86.136C245.351 82.392 255.479 85.896 255.479 94.248C255.479 99.864 250.583 106.248 242.375 111.336ZM248.567 81.144C245.831 80.424 239.159 79.032 236.951 78.744L238.055 71.736C241.127 72.168 247.943 73.512 250.247 74.184L248.567 81.144ZM307.271 109.656C294.839 108.84 299.639 92.184 310.631 95.928C310.199 91.512 305.975 87.48 296.903 93.336C296.855 99 296.999 104.904 297.239 108.12L289.559 108.408C289.415 106.2 289.319 102.984 289.271 98.952C287.783 100.296 286.295 101.784 285.431 102.648L279.863 97.416C282.359 94.92 286.295 91.56 289.223 89.4C289.271 88.776 289.271 88.248 289.271 86.376C286.775 86.568 283.847 86.712 281.831 86.904V79.56C284.999 79.512 287.687 79.416 289.511 79.272C289.559 77.112 289.607 76.008 289.703 74.856L297.335 75.048C297.191 77.784 297.047 81.096 296.999 84.84C309.911 79.464 320.183 86.424 317.879 98.664C319.415 99.576 320.855 100.584 321.623 101.352L318.071 107.256C317.351 106.728 316.343 106.104 315.287 105.528C313.559 108.216 311.015 109.656 307.943 109.656C307.703 109.656 307.511 109.656 307.271 109.656ZM306.791 103.944C308.039 105.384 310.487 103.848 310.199 102.504C310.007 101.688 309.431 101.352 308.807 101.304C307.463 101.256 305.735 102.744 306.791 103.944Z" fill="#23211C"/>
</svg>
