<?xml version="1.0" encoding="UTF-8"?>
<svg id="_レイヤー_1" data-name="レイヤー 1" xmlns="http://www.w3.org/2000/svg" viewBox="0 0 275.16 60.37">
  <defs>
    <style>
      .cls-1 {
        font-family: PPuhuPicnicMin2-H-83pv-RKSJ-H, 'A P-OTF PuhuPicnic Min2';
        font-size: 57.99px;
      }

      .cls-2 {
        letter-spacing: -.1em;
      }

      .cls-3 {
        letter-spacing: -.11em;
      }

      .cls-4 {
        letter-spacing: -.11em;
      }
    </style>
  </defs>
  <path d="M64.03,16.34c6.58,7.11,6.65,16.09.09,23.25-6.33,6.9-17.06,10.25-26.16,10.81-10.98.69-24.32-2.09-32.36-10.09-6.41-6.37-7.63-14.98-1.98-22.36,6.37-8.31,18.55-11.95,28.61-12.41,10.74-.48,24.25,2.62,31.81,10.79ZM42.51,22.15c2.69-.42,5.49-1.06,7.97-2.24s5.56-3.53,3.13-6.4c-2.64-3.12-9.95-4.46-13.84-4.83-5.01-.48-10.55-.3-15.47.76-2.73.59-7.86,2.11-9.32,4.68-2.03,3.58,3.56,5.95,6.1,6.79,1.76.58,3.61.98,5.44,1.25.37-2.62,1.01-5.3,2.07-7.72,1.12-2.56,3.36-6.17,6.62-5.59,2.03.36,3.61,2.48,4.54,4.19,1.51,2.78,2.28,6.01,2.77,9.12ZM39.46,22.53c-.23-1.55-.6-3.12-1.17-4.58-.68-1.74-2.29-4.7-4.58-3.85-1.94.73-3.11,3.86-3.62,5.72-.09.32-.63,2.63-.54,2.74.19.03.4.04.59.06,2.11.22,4.45.17,6.56.09.92-.03,1.84-.05,2.75-.19ZM8.9,17.93c-.04-.37.03-.81,0-1.19-3.1,3.59-4.65,8.51-3.73,13.25,1.19,6.12,6.02,10.86,11.28,13.71,4.71,2.55,10.09,3.93,15.42,4.23-.44-.44-.9-.85-1.29-1.33-3.31-4.03-4.42-11.5-4.58-16.59-.02-.75.03-1.51,0-2.26-3.81-.65-7.69-1.55-11.14-3.33-2.43-1.25-5.62-3.52-5.95-6.49ZM37.14,47.93c4.77-.27,9.56-1.4,13.88-3.46,7.65-3.64,14.51-10.86,12.81-20.09-.52-2.82-1.92-5.45-3.7-7.64-.1-.02-.07.05-.07.12.15,3.58-2.67,5.8-5.52,7.35-3.55,1.93-7.63,2.88-11.58,3.54-.03.41.05.82.04,1.23-.04,5.45-1.25,14.66-5.43,18.53-.05.05-.51.36-.44.42ZM29.15,28.14c.12,1.03.11,2.1.23,3.13.31,2.66,1.33,7.16,3.44,8.93,2.24,1.87,4.13-.43,5.07-2.39,1.24-2.59,1.79-5.97,1.89-8.82,0-.2.19-.87-.11-.86-.74.04-1.49.15-2.23.18-1.93.09-3.99.09-5.92,0-.73-.03-1.49-.18-2.22-.18-.05,0-.11,0-.16.01Z"/>
  <text class="cls-1" transform="translate(66.1 51.03)"><tspan class="cls-2" x="0" y="0">シ</tspan><tspan class="cls-4" x="52.19" y="0">エ</tspan><tspan class="cls-3" x="103.92" y="0">ン</tspan><tspan class="cls-2" x="155.71" y="0">タ</tspan></text>
</svg>