<svg width="99" height="80" viewBox="0 0 99 80" fill="none" xmlns="http://www.w3.org/2000/svg">
<path d="M79.0277 10.8367C85.6049 17.9447 85.6802 26.9301 79.1156 34.0846C72.7839 40.9858 62.0592 44.3309 52.9522 44.8994C41.9736 45.5862 28.6352 42.8138 20.5895 34.8136C14.184 28.4457 12.9595 19.8347 18.6133 12.4564C24.9855 4.14372 37.1662 0.501726 47.2188 0.0485879C57.9603 -0.43551 71.466 2.66469 79.0277 10.8381V10.8367ZM57.5057 16.6472C60.2001 16.2251 63.0005 15.5833 65.4718 14.4027C67.9027 13.2417 71.0295 10.8718 68.5972 7.99961C65.9572 4.88253 58.6521 3.54422 54.754 3.17271C49.7473 2.69565 44.2036 2.87155 39.2833 3.93122C36.5568 4.51946 31.4231 6.03648 29.9657 8.61177C27.9393 12.1918 33.529 14.5631 36.0687 15.399C37.8259 15.9774 39.6822 16.377 41.5119 16.6458C41.8829 14.0241 42.5244 11.3489 43.5844 8.92137C44.7001 6.36438 46.9454 2.75053 50.2047 3.33173C52.2367 3.6948 53.8113 5.80851 54.7401 7.52255C56.2477 10.3047 57.0203 13.5287 57.5057 16.6458V16.6472ZM54.4542 17.0202C54.2269 15.4694 53.8587 13.8989 53.2869 12.4395C52.6063 10.703 50.9927 7.73646 48.7111 8.59348C46.7711 9.32103 45.6024 12.4536 45.0934 14.3154C45.0055 14.6349 44.463 16.9442 44.5522 17.0511C44.7391 17.0835 44.9511 17.0933 45.1408 17.113C47.2467 17.334 49.5911 17.2847 51.704 17.2073C52.623 17.1735 53.5449 17.1553 54.4542 17.0202ZM23.9018 12.4283C23.86 12.0582 23.9325 11.6177 23.9018 11.2391C20.8043 14.8276 19.2507 19.746 20.1726 24.4885C21.3608 30.6073 26.1904 35.3455 31.451 38.1952C36.1565 40.7438 41.5384 42.1285 46.8743 42.4297C46.435 41.992 45.9762 41.5811 45.5815 41.0998C42.2706 37.0736 41.1647 29.6011 41.0029 24.5054C40.9792 23.7553 41.0294 22.9996 40.9987 22.2481C37.1899 21.598 33.3101 20.6959 29.8555 18.9186C27.4275 17.6689 24.2379 15.3948 23.9032 12.4283H23.9018ZM52.1433 42.4297C56.9157 42.1567 61.7063 41.0266 66.0255 38.9734C73.6793 35.3343 80.5367 28.1178 78.8381 18.8834C78.3193 16.066 76.919 13.4373 75.1367 11.2405C75.0363 11.2208 75.0656 11.2856 75.0684 11.3559C75.2176 14.936 72.4032 17.1595 69.5526 18.7075C66.0074 20.6326 61.9225 21.5867 57.9701 22.2467C57.938 22.6605 58.0161 23.0658 58.0133 23.4795C57.9757 28.9284 56.7595 38.1361 52.5812 42.0117C52.531 42.0582 52.0749 42.372 52.1405 42.4297H52.1433ZM44.1506 22.6365C44.2663 23.6652 44.258 24.732 44.3793 25.7621C44.6903 28.4176 45.7084 32.9208 47.8241 34.6897C50.0667 36.5642 51.9536 34.2563 52.8922 32.2988C54.132 29.7137 54.6801 26.3278 54.7777 23.4767C54.7847 23.2768 54.9674 22.6028 54.6704 22.6182C53.9312 22.6576 53.1851 22.7688 52.4445 22.8026C50.5157 22.8898 48.4572 22.8898 46.5285 22.8026C45.7977 22.7702 45.0376 22.6197 44.3068 22.6253C44.2524 22.6253 44.2008 22.6225 44.1506 22.6379V22.6365Z" fill="#23211C"/>
<path d="M8.532 74.112L6.9 70.248C13.62 67.824 15.996 65.256 18.156 61.08L21.756 62.952C19.692 68.808 14.796 72.312 8.532 74.112ZM9.372 66.84C7.788 66.336 5.82 65.592 4.332 64.824L5.7 61.848C7.404 62.664 8.844 63.264 10.62 63.744L9.372 66.84ZM11.124 62.064C9.564 61.488 7.644 60.6 6.228 59.784L7.692 56.928C9.372 57.816 10.74 58.464 12.516 59.184L11.124 62.064ZM29.652 72.864L29.676 68.52C30.924 68.4 32.82 68.304 34.86 68.256C34.86 66.576 34.836 65.016 34.836 63.504C33.372 63.552 32.052 63.624 31.212 63.696L31.068 59.4C33.54 59.208 40.812 59.088 43.212 59.088L43.26 63.456C42.348 63.432 40.884 63.432 39.276 63.432C39.276 64.632 39.252 66.36 39.252 68.16C41.436 68.136 43.38 68.136 44.508 68.16L44.604 72.552C42.228 72.528 34.02 72.648 29.652 72.864ZM58.164 74.112L56.244 70.248C62.82 67.776 64.692 65.352 66.612 60.6L70.524 62.352C68.772 68.304 64.332 71.976 58.164 74.112ZM59.484 64.44C57.732 63.576 55.908 62.832 53.82 62.184L55.26 58.704C57.204 59.136 59.484 59.976 61.02 60.96L59.484 64.44ZM87.516 74.928L83.652 73.2C84.54 72.12 85.284 70.968 85.932 69.816C85.092 69.504 84.228 69.192 83.34 68.928L84.684 65.544C85.596 65.76 86.532 66.048 87.468 66.36C87.756 65.544 87.996 64.728 88.188 63.912C86.652 63.792 85.356 63.696 83.844 63.6C83.292 64.824 82.644 66.048 81.972 67.176L78.444 65.376C79.98 62.688 81.132 59.64 81.756 56.664L85.764 57.384C85.668 58.08 85.524 58.776 85.332 59.496C88.236 59.664 91.356 59.76 93.372 59.784C93.132 62.304 92.388 65.232 91.332 67.968C92.028 68.304 92.652 68.664 93.204 69.024L91.476 72.528C90.924 72.168 90.324 71.832 89.724 71.496C89.052 72.768 88.308 73.944 87.516 74.928Z" fill="black"/>
</svg>
